<?xml version="1.0" encoding="UTF-8" standalone="no"?>
<!DOCTYPE svg PUBLIC "-//W3C//DTD SVG 1.1//EN" "http://www.w3.org/Graphics/SVG/1.1/DTD/svg11.dtd">
<svg width="100%" height="100%" viewBox="0 0 1024 1024" version="1.1" xmlns="http://www.w3.org/2000/svg" xmlns:xlink="http://www.w3.org/1999/xlink" xml:space="preserve" xmlns:serif="http://www.serif.com/" style="fill-rule:evenodd;clip-rule:evenodd;stroke-linejoin:round;stroke-miterlimit:2;">
    <g transform="matrix(2.68297,0,0,2.68297,26.0294,-15.5063)">
        <g transform="matrix(9.54154,0,0,9.54154,-76.891,-49.3661)">
            <path d="M32.862,10.695C32.854,10.739 32.853,10.783 32.842,10.827L31.355,16.548C31.085,17.586 30.01,18.219 28.972,17.951L28.696,17.88C28.228,17.759 27.82,17.468 27.554,17.064C27.39,16.808 27.137,16.622 26.844,16.541C26.756,16.518 26.664,16.506 26.573,16.506C25.946,16.506 25.354,17.031 25.166,17.755C25.055,18.184 25.098,18.617 25.288,18.975C25.46,19.299 25.723,19.515 26.049,19.599C26.159,19.628 26.266,19.642 26.366,19.642C26.544,19.642 26.719,19.593 26.871,19.501C27.318,19.24 27.851,19.165 28.353,19.294L28.602,19.359C29.64,19.631 30.272,20.707 30.004,21.746L29.763,22.674C31.631,23.675 32.802,25.63 32.802,27.75C32.802,30.908 30.203,33.508 27.044,33.508C23.885,33.508 21.286,30.908 21.286,27.75C21.286,27.749 21.286,27.749 21.286,27.748C21.286,27.73 21.29,27.714 21.29,27.696L20.347,27.451C19.31,27.18 18.678,26.105 18.944,25.067L19.016,24.787C19.137,24.316 19.43,23.907 19.837,23.641C20.109,23.462 20.299,23.212 20.37,22.938C20.476,22.532 20.329,22.189 20.187,21.973C19.946,21.617 19.581,21.364 19.163,21.262C19.01,21.222 18.852,21.202 18.694,21.201C18.424,21.201 18.161,21.264 17.934,21.384C17.608,21.556 17.392,21.818 17.307,22.142C17.225,22.459 17.253,22.72 17.395,22.964C17.658,23.415 17.731,23.94 17.6,24.443L17.534,24.697C17.264,25.736 16.186,26.369 15.147,26.099L9.386,24.601C9.351,24.592 9.321,24.575 9.287,24.564C9.098,25.616 9.003,26.682 9.002,27.75C9.002,37.708 17.079,45.78 27.042,45.78C37.005,45.78 45.082,37.708 45.082,27.75C45.083,19.83 39.967,13.117 32.862,10.695Z" style="fill-rule:nonzero;" fill="#3B68AF"/>
        </g>
        <g transform="matrix(9.54154,0,0,9.54154,-76.891,-49.3661)">
            <path d="M29.661,16.108L31.148,10.387C31.176,10.277 31.109,10.163 30.999,10.134L14.278,5.786C14.168,5.758 14.054,5.825 14.025,5.935L9.678,22.656C9.65,22.766 9.717,22.88 9.827,22.909L15.588,24.407C15.698,24.435 15.812,24.368 15.841,24.258L15.907,24.004C15.921,23.951 15.912,23.894 15.884,23.847C15.508,23.203 15.415,22.466 15.614,21.702C15.822,20.9 16.357,20.238 17.118,19.836C17.883,19.439 18.771,19.344 19.603,19.568C20.441,19.779 21.171,20.294 21.65,21.013C22.125,21.737 22.272,22.577 22.063,23.378C21.882,24.075 21.434,24.684 20.798,25.102C20.755,25.13 20.724,25.173 20.711,25.223L20.639,25.503C20.611,25.613 20.678,25.727 20.788,25.756L26.55,27.254C26.66,27.282 26.774,27.215 26.803,27.105L28.311,21.303C28.339,21.193 28.272,21.079 28.162,21.05L27.913,20.985C27.86,20.971 27.803,20.98 27.756,21.008C27.106,21.389 26.367,21.486 25.609,21.289C24.803,21.077 24.123,20.532 23.742,19.791C23.344,19.027 23.248,18.141 23.472,17.31C23.936,15.524 25.647,14.417 27.284,14.843C27.995,15.032 28.611,15.478 29.012,16.094C29.04,16.137 29.083,16.168 29.132,16.181L29.408,16.252C29.427,16.257 29.446,16.26 29.465,16.26C29.557,16.26 29.638,16.197 29.661,16.108Z" style="fill-rule:nonzero;" fill="#F5891F"/>
        </g>
    </g>
</svg>
